<svg height="638pt" viewBox="0 -45 638.74973 638" width="638pt" xmlns="http://www.w3.org/2000/svg"><path d="m593.386719 141.355469v65.976562h-541.914063l-5.953125-146.320312c-1.53125-32.992188 24.890625-60.636719 58.039063-60.636719h125.09375c20.308594 0 39.253906 10.691406 49.789062 28.253906l15.886719 26.582032c10.535156 17.5625 29.324219 28.253906 49.789063 28.253906h191.078124c32.074219-.152344 58.191407 25.8125 58.191407 57.890625zm0 0" fill="#00efd1"/><path d="m608.207031 192.0625c18.480469 0 32.835938 16.34375 30.238281 34.671875l-37.417968 272.175781c-3.972656 28.71875-28.5625 50.105469-57.429688 50.105469h-447.832031c-29.019531 0-53.460937-21.386719-57.425781-50.105469l-38.035156-272.175781c-2.59375-18.328125 11.761718-34.824219 30.242187-34.824219h577.660156zm0 0" fill="#00acea"/><path d="m330.527344 257.738281c-2.90625-3.050781-6.875-4.886719-11.152344-4.886719s-8.25 1.835938-11.148438 4.886719l-89.351562 96.070313c-5.804688 6.113281-5.347656 15.886718.765625 21.542968 6.105469 5.800782 15.882813 5.34375 21.535156-.765624l62.929688-67.667969v166.792969c0 8.402343 6.871093 15.273437 15.269531 15.273437 8.402344 0 15.273438-6.871094 15.273438-15.273437v-166.785157l62.929687 67.660157c3.054687 3.207031 7.027344 4.886718 11.148437 4.886718 3.667969 0 7.488282-1.375 10.386719-4.121094 6.109375-5.804687 6.570313-15.429687.765625-21.542968zm0 0" fill="#083863"/></svg>